<?xml version="1.0" encoding="utf-8"?>
<!-- Generator: Adobe Illustrator 14.0.0, SVG Export Plug-In . SVG Version: 6.00 Build 43363)  -->
<!DOCTYPE svg PUBLIC "-//W3C//DTD SVG 1.1//EN" "http://www.w3.org/Graphics/SVG/1.1/DTD/svg11.dtd">
<svg version="1.1" id="Capa_1" xmlns="http://www.w3.org/2000/svg" xmlns:xlink="http://www.w3.org/1999/xlink" x="0px" y="0px"
	 width="150px" height="150px" viewBox="0 0 150 150" enable-background="new 0 0 150 150" xml:space="preserve">
<g>
	<circle fill="#007BC0" cx="75" cy="75" r="60"/>
	<circle fill="none" stroke="#1390C5" stroke-width="0.015" stroke-miterlimit="3.864" cx="75" cy="75" r="60"/>
	<path fill="#FFFFFF" d="M74.183,106.424v-4.645h2.229c1.605,0,2.078,1.045,2.117,2.248c0.041,1.231-0.57,2.396-2.059,2.396H74.183
		 M69.096,117.266h5.027v-6.484l1.666,0.029c3.211,0,4.461-0.297,5.563-1.07c1.664-1.161,2.588-3.122,2.588-5.473
		c0-4.371-2.498-6.813-6.545-6.813h-8.296v19.811H69.096z"/>
	<path fill="#FFFFFF" d="M102.039,116.547c-1.887,0.928-2.971,1.192-4.791,1.192c-5.979,0-10.201-4.253-10.201-10.291
		c0-5.978,4.313-10.409,10.143-10.409c1.795,0,2.955,0.291,4.851,1.225v5.186c-1.964-1.646-2.738-1.53-4.285-1.53
		c-3.004,0-5.086,2.291-5.086,5.531c0,3.271,2.11,5.53,5.115,5.53c1.624,0,2.438-0.213,4.256-1.565L102.039,116.547"/>
	<path fill="#FFFFFF" d="M55.816,112.92c0.795-0.01,1.313-0.17,1.925-0.678c0.886-0.734,0.998-1.626,1.017-2.77V97.455h5.764V109.5
		c0,2.104-0.075,4.697-2.84,6.65c-1.803,1.271-3.939,1.537-5.868,1.537c-1.931,0-4.067-0.267-5.869-1.537
		c-2.766-1.953-2.84-4.549-2.84-6.65V97.455h5.763v12.02c0.018,1.144,0.131,2.033,1.018,2.771
		C54.498,112.754,55.021,112.91,55.816,112.92"/>
	<path fill="#FFFFFF" d="M45.86,40.502c0-4.73,3.834-8.565,8.563-8.565c4.73,0,8.564,3.834,8.564,8.565
		c0,4.729-3.834,8.563-8.563,8.563C49.693,49.065,45.86,45.231,45.86,40.502"/>
	<path fill="#FFFFFF" d="M45.86,60.799c0-4.729,3.834-8.563,8.565-8.563c4.729,0,8.563,3.834,8.563,8.563
		c0,4.73-3.834,8.565-8.563,8.565C49.693,69.364,45.86,65.529,45.86,60.799"/>
	<path fill="#FFFFFF" d="M45.86,81.633c0-4.729,3.834-8.563,8.565-8.563c4.729,0,8.563,3.834,8.563,8.563
		c0,4.73-3.834,8.565-8.563,8.565C49.693,90.198,45.86,86.363,45.86,81.633"/>
	<path fill="#FFFFFF" d="M66.674,40.502c0-4.73,3.834-8.565,8.564-8.565c4.731,0,8.565,3.834,8.565,8.565
		c0,4.729-3.834,8.563-8.564,8.563C70.51,49.065,66.676,45.231,66.674,40.502"/>
	<path fill="#FFFFFF" d="M66.676,60.799c0-4.729,3.834-8.563,8.564-8.563c4.729,0,8.563,3.834,8.563,8.563
		c0,4.73-3.834,8.565-8.563,8.565C70.51,69.364,66.676,65.529,66.676,60.799"/>
	<path fill="#FFFFFF" d="M66.676,81.633c0-4.729,3.834-8.563,8.564-8.563c4.729,0,8.563,3.834,8.563,8.563
		c0,4.73-3.834,8.565-8.563,8.565C70.51,90.198,66.676,86.363,66.676,81.633"/>
	<path fill="#FFFFFF" d="M87.01,40.502c0-4.73,3.834-8.565,8.563-8.565c4.729,0,8.564,3.834,8.564,8.565
		c0,4.729-3.834,8.563-8.564,8.563C90.844,49.065,87.01,45.231,87.01,40.502"/>
	<path fill="#FFFFFF" d="M87.01,60.799c0-4.729,3.834-8.563,8.563-8.563c4.729,0,8.564,3.834,8.564,8.563
		c0,4.73-3.834,8.565-8.564,8.565C90.844,69.364,87.01,65.529,87.01,60.799"/>
	<path fill="#FFFFFF" d="M87.01,81.633c0-4.729,3.834-8.563,8.563-8.563c4.729,0,8.564,3.834,8.564,8.563
		c0,4.73-3.834,8.565-8.564,8.565C90.844,90.198,87.01,86.363,87.01,81.633"/>
</g>
</svg>
